<?xml version="1.0" encoding="UTF-8"?>
<svg width="30px" height="30px" viewBox="0 0 30 30" version="1.1" xmlns="http://www.w3.org/2000/svg" xmlns:xlink="http://www.w3.org/1999/xlink">
    <title>bone</title>
    <g id="E-HEALTH" stroke="none" stroke-width="1" fill="none" fill-rule="evenodd" fill-opacity="0.96">
        <g id="hide-b" transform="translate(-9, -9)" fill="#FFFFFF" fill-rule="nonzero">
            <g id="bone" transform="translate(9, 9)">
                <path d="M9.0903266,30 C8.92016819,30 8.74916741,29.9907935 8.57732426,29.9723806 C6.45624071,29.7405448 4.73949397,28.0432058 4.49520714,25.9374341 C4.47330557,25.747446 4.46319714,25.5582948 4.46403951,25.3691436 C3.25018669,25.3239481 2.08940308,24.800853 1.25545839,23.9178685 C0.370129236,22.980482 -0.072114158,21.755184 0.00959557391,20.4671146 C0.154482934,18.2039959 1.97736809,16.3593533 4.25007795,16.1752238 C4.88269659,16.1241697 5.50436445,16.1978215 6.09823415,16.3936683 C6.879952,16.6514496 7.78297089,16.4237986 8.3978998,15.8119866 L15.919407,8.33967748 C16.5267546,7.73623495 16.7373467,6.82646793 16.4694735,5.96524413 C16.3330098,5.52584424 16.2639356,5.06886834 16.2639356,4.60519683 C16.2639356,3.29704057 16.8266377,2.04663401 17.8079969,1.17369288 C18.7885136,0.301588703 20.1051354,-0.116050437 21.4242843,0.0279053391 C23.5453678,0.260578046 25.2612722,1.95791708 25.505559,4.06368877 C25.5274606,4.25367692 25.537569,4.44282811 25.5367267,4.63114235 C25.7153087,4.63783797 25.8938908,4.65457701 26.0724729,4.68135948 L26.0724729,4.68135948 C28.1446991,4.99521655 29.7881598,6.72687062 29.9802198,8.79916423 C30.1006785,10.0930923 29.6668588,11.3828356 28.7907957,12.3369611 C27.9138902,13.2919236 26.6655003,13.8401272 25.3648835,13.8401272 C24.8063933,13.8401272 24.2605386,13.7422038 23.7416397,13.5488679 C22.868946,13.2241304 21.8909563,13.4266729 21.249914,14.0635935 L13.9617429,21.3049038 C13.3207006,21.9418244 13.1168474,22.9135259 13.4436863,23.7806083 C13.6382734,24.2961709 13.7368305,24.8393528 13.7368305,25.3934152 C13.7368305,26.7007345 13.1741285,27.951978 12.1936117,28.8249191 C11.3411349,29.5840348 10.2325781,29.999163 9.09116897,29.999163 L9.0903266,30 Z M5.42686656,23.6157287 C5.65430602,23.6157287 5.87500653,23.7069565 6.03505652,23.87351 C6.23638256,24.0827481 6.31556519,24.380703 6.24227914,24.661082 C6.15130336,25.011765 6.12687468,25.3766761 6.16983546,25.745772 C6.32483124,27.0832216 7.41485591,28.1612161 8.7626453,28.3085196 C9.61680683,28.4022583 10.4364313,28.1428031 11.0690499,27.5795343 C11.6940872,27.023798 12.0520938,26.2270196 12.0520938,25.3950891 C12.0520938,25.0418953 11.9897585,24.696234 11.8659304,24.3689857 C11.3082825,22.8892542 11.663762,21.2228824 12.770634,20.1231273 L20.0588051,12.881817 C21.1656772,11.7820618 22.843675,11.428868 24.3321399,11.9829303 C24.6615059,12.1051254 25.0094041,12.1678968 25.3648835,12.1678968 C26.1929316,12.1678968 26.9881274,11.8188877 27.5457752,11.2104235 C28.1118468,10.5935897 28.3805623,9.79262647 28.302222,8.95400038 C28.1800786,7.6374746 27.1346994,6.53688247 25.8180777,6.33768785 L25.8180777,6.33768785 C25.4600711,6.28328596 25.1003798,6.29332939 24.7491122,6.36781813 C24.4635493,6.42724174 24.167878,6.3368509 23.966552,6.12761286 C23.765226,5.91837481 23.6860433,5.62041983 23.7593294,5.34004085 C23.8503052,4.98935789 23.8747339,4.62528369 23.8317731,4.25618777 C23.6767773,2.91873818 22.5867526,1.84074377 21.2398056,1.69344019 C20.3848017,1.60053849 19.5660196,1.85831977 18.9325586,2.42242554 C18.3075213,2.97816179 17.9495147,3.77494027 17.9495147,4.60770769 C17.9495147,4.90315181 17.9933179,5.19441117 18.0800818,5.4739532 C18.5324337,6.93025 18.1617916,8.4827963 17.1113582,9.52563872 L9.58985104,16.9987848 C8.52762453,18.0541815 6.94818384,18.4408534 5.56669971,17.9847144 C5.18847631,17.8600086 4.79172081,17.8131392 4.38654162,17.8457804 C2.94187987,17.9629537 1.78278099,19.1355237 1.69012047,20.5750815 C1.63789363,21.3961315 1.91924467,22.1770079 2.48278911,22.7737548 C3.04717592,23.3713387 3.81120403,23.7002609 4.63504029,23.7002609 C4.84057817,23.7002609 5.04780079,23.6785002 5.2499692,23.6358156 C5.30809262,23.6232613 5.36621604,23.6174026 5.42433945,23.6174026 L5.42686656,23.6157287 Z" id="Shape"></path>
            </g>
        </g>
    </g>
</svg>