<?xml version="1.0" encoding="UTF-8"?>
<svg width="64px" height="64px" viewBox="0 0 64 64" version="1.1" xmlns="http://www.w3.org/2000/svg" xmlns:xlink="http://www.w3.org/1999/xlink">
    <title>showboundingbox</title>
    <g id="showboundingbox" stroke="none" stroke-width="1" fill="none" fill-rule="evenodd" fill-opacity="0.96">
        <g id="showboundingbox-copy" transform="translate(8, 2.8846)" fill="#FFFFFF" fill-rule="nonzero">
            <g id="Boundingbox2" transform="translate(0, 0)">
                <g id="Group">
                    <path d="M44.2408172,45.2344938 C43.7304317,45.2344938 43.2373148,44.9470367 42.9763658,44.4429745 C42.5964547,43.7061125 42.8535662,42.785035 43.5519886,42.3842144 L44.5075225,41.8356166 L44.5343849,40.6878123 C44.5535723,39.8618791 45.1944324,39.2080153 45.9715232,39.2080153 C45.9830357,39.2080153 45.9964668,39.2080153 46.0079793,39.2080153 C46.8023388,39.2282587 47.4297677,39.9246338 47.4105803,40.7627131 L47.3626117,42.7870593 C47.3491805,43.3295841 47.0632878,43.8235245 46.6123833,44.0826409 L44.9277271,45.0502783 C44.7089905,45.1757878 44.4729851,45.2365182 44.2408172,45.2365182 L44.2408172,45.2344938 Z" id="Path"></path>
                    <path d="M29.4760918,53.7165043 C28.9657062,53.7165043 28.4725893,53.4290471 28.2116403,52.9249849 C27.8317293,52.1881229 28.0888408,51.2670454 28.7872632,50.8662249 L31.7402082,49.1698228 C32.4386306,48.7690022 33.3116586,49.0402646 33.6915696,49.7771266 C34.0714807,50.5139886 33.8143691,51.4350661 33.1159468,51.8358867 L30.1630017,53.5322888 C29.944265,53.6577982 29.7082597,53.7185286 29.4760918,53.7185286 L29.4760918,53.7165043 Z M36.8594139,49.4754991 C36.3490283,49.4754991 35.8559114,49.1880419 35.5949624,48.6839797 C35.2150514,47.9471177 35.4721629,47.0260402 36.1705852,46.6252196 L39.1235303,44.9288176 C39.8219527,44.527997 40.6949806,44.7992594 41.0748917,45.5361214 C41.4548028,46.2729834 41.1976912,47.1940609 40.4992689,47.5948815 L37.5463238,49.2912836 C37.3275871,49.416793 37.0915818,49.4775234 36.8594139,49.4775234 L36.8594139,49.4754991 Z" id="Shape"></path>
                    <path d="M23.3610587,57.2307692 C23.1001097,57.2307692 22.8410794,57.1558684 22.6108303,57.0080912 L20.9741427,55.9534068 C20.2949078,55.516148 20.0819273,54.5809001 20.4963757,53.8663059 C20.9108242,53.1496874 21.7972833,52.9249849 22.4745995,53.3622437 L23.403271,53.9614502 L24.3588049,53.4128524 C25.0572273,53.0120318 25.9302552,53.2832942 26.3101663,54.0201562 C26.6900773,54.7570182 26.4329658,55.6780957 25.7345434,56.0789163 L24.0498873,57.0465537 C23.8349881,57.1700388 23.5989828,57.2307692 23.3610587,57.2307692 L23.3610587,57.2307692 Z" id="Path"></path>
                    <path d="M17.4187124,53.4007063 C17.1635196,53.4007063 16.9044893,53.3278298 16.6704027,53.1780282 L13.8018823,51.3277758 C13.1245661,50.890517 12.9096669,49.9552691 13.3241154,49.2406749 C13.7385638,48.5240564 14.6250229,48.2993539 15.3023391,48.7366127 L18.1708595,50.5868651 C18.8481757,51.0241239 19.0630749,51.9593718 18.6486265,52.673966 C18.3780838,53.14159 17.9041543,53.4007063 17.4187124,53.4007063 L17.4187124,53.4007063 Z M10.246452,48.7770996 C9.99125921,48.7770996 9.73222893,48.7042232 9.49814232,48.5544215 L6.62962191,46.7041691 C5.95038698,46.2669104 5.73740654,45.3316624 6.15185497,44.6170682 C6.5663034,43.9004497 7.45084381,43.6757473 8.13007874,44.113006 L10.9985991,45.9632584 C11.6778341,46.4005172 11.8908145,47.3357651 11.4763661,48.0503593 C11.2058234,48.5179833 10.7318939,48.7770996 10.246452,48.7770996 Z" id="Shape"></path>
                    <path d="M3.0741916,44.153493 C2.81899882,44.153493 2.55996855,44.0806165 2.32588193,43.9308149 L0.689194369,42.8761305 C0.24980228,42.5927221 -0.0111467337,42.0846112 0.000365722817,41.5420864 L0.0483342915,39.5177402 C0.067521719,38.691807 0.708381796,38.0379432 1.48547261,38.0379432 C1.49698507,38.0379432 1.51041626,38.0379432 1.52192872,38.0379432 C2.31628822,38.0581867 2.9437171,38.7545617 2.92452967,39.592641 L2.89766727,40.7404453 L3.82633876,41.3396518 C4.50557369,41.7769106 4.71855414,42.7121585 4.3041057,43.4267527 C4.03356298,43.8943767 3.55963352,44.153493 3.0741916,44.153493 Z" id="Path"></path>
                    <path d="M1.61210963,35.7565051 C1.60059717,35.7565051 1.58716597,35.7565051 1.57565352,35.7565051 C0.781294021,35.7362616 0.153865143,35.0398865 0.17305257,34.2018072 L0.257477251,30.6551527 C0.276664678,29.8170734 0.940549669,29.1611852 1.73107168,29.1753557 C2.52543118,29.1955991 3.15286006,29.8919742 3.13367263,30.7300535 L3.04924795,34.276708 C3.03006052,35.1026412 2.38920044,35.7565051 1.61210963,35.7565051 Z M1.82125259,26.8898688 C1.80974013,26.8898688 1.79630893,26.8898688 1.78479648,26.8898688 C0.99043698,26.8696254 0.363008102,26.1732503 0.382195529,25.335171 L0.46662021,21.7885165 C0.485807638,20.9504372 1.15353011,20.2844273 1.94021464,20.3087194 C2.73457414,20.3289629 3.36200302,21.025338 3.34281559,21.8634173 L3.25839091,25.4100718 C3.23920348,26.236005 2.5983434,26.8898688 1.82125259,26.8898688 L1.82125259,26.8898688 Z" id="Shape"></path>
                    <path d="M2.02847681,18.0252569 C2.01696435,18.0252569 2.00353315,18.0252569 1.99202069,18.0252569 C1.1976612,18.0050135 0.570232319,17.3086384 0.589419746,16.4705591 L0.637388315,14.4462129 C0.650819514,13.9036881 0.936712183,13.4097477 1.38761673,13.1506314 L3.07227286,12.1829939 C3.77069522,11.7821734 4.64372317,12.0534357 5.02363423,12.7902978 C5.4035453,13.5271598 5.14643377,14.4482373 4.44801141,14.8490578 L3.49247752,15.3976556 L3.46561512,16.5454599 C3.4464277,17.3713931 2.80556762,18.0252569 2.02847681,18.0252569 Z" id="Path"></path>
                    <path d="M8.19147851,12.4866458 C7.68109294,12.4866458 7.18797605,12.1991887 6.92702704,11.6951265 C6.54711597,10.9582645 6.8042275,10.037187 7.50264986,9.63636642 L10.455595,7.93996433 C11.1540173,7.53914379 12.0270453,7.81040617 12.4069563,8.54726818 C12.7868674,9.28413018 12.5297559,10.2052077 11.8313335,10.6060282 L8.87838841,12.3024303 C8.65965174,12.4279398 8.42364638,12.4886702 8.19147851,12.4886702 L8.19147851,12.4866458 Z M15.5728819,8.2456406 C15.0624963,8.2456406 14.5693794,7.95818344 14.3084304,7.45412125 C13.9285193,6.71725924 14.1856309,5.79618173 14.8840532,5.39536119 L17.8369983,3.6989591 C18.5354207,3.29813856 19.4084486,3.56940095 19.7883597,4.30626295 C20.1682707,5.04312496 19.9111592,5.96420247 19.2127368,6.36502301 L16.2597918,8.0614251 C16.0410551,8.18693456 15.8050497,8.24766495 15.5728819,8.24766495 L15.5728819,8.2456406 Z" id="Shape"></path>
                    <path d="M26.2737102,4.09168226 C26.0185174,4.09168226 25.7594871,4.02083014 25.5254005,3.86900418 L24.596729,3.26979771 L23.6411951,3.81839552 C22.9427727,4.21921607 22.0697448,3.94795368 21.6898337,3.21109167 C21.3099227,2.47422967 21.5670342,1.55315216 22.2654566,1.15233162 L23.9501127,0.184694149 C24.4010172,-0.0744221611 24.9497777,-0.0602517379 25.3891697,0.223156726 L27.0258573,1.27784108 C27.7050922,1.71509985 27.9180727,2.65034778 27.5036243,3.36494198 C27.2330815,3.83256595 26.7591521,4.09168226 26.2737102,4.09168226 L26.2737102,4.09168226 Z" id="Path"></path>
                    <path d="M40.6201497,13.3388956 C40.3649569,13.3388956 40.1059266,13.2680434 39.87184,13.1162175 L37.0033196,11.2659651 C36.3240847,10.8287063 36.1111042,9.89345838 36.5255527,9.17886418 C36.9400011,8.46426999 37.8264602,8.23754321 38.5037764,8.67480199 L41.3722968,10.5250544 C42.0515318,10.9623132 42.2645122,11.8975611 41.8500638,12.6121553 C41.579521,13.0797793 41.1055916,13.3388956 40.6201497,13.3388956 Z M33.4478893,8.71528891 C33.1926965,8.71528891 32.9336662,8.64443679 32.6995796,8.49261083 L29.8310592,6.64235843 C29.153743,6.20509966 28.9388438,5.26985173 29.3532923,4.55525753 C29.7677407,3.84066333 30.6541998,3.61393656 31.331516,4.05119533 L34.2000364,5.90144773 C34.8773526,6.33870651 35.0922518,7.27395444 34.6778034,7.98854864 C34.4072607,8.4561726 33.9333312,8.71528891 33.4478893,8.71528891 Z" id="Shape"></path>
                    <path d="M46.5145274,19.1912803 C46.5030149,19.1912803 46.4895837,19.1912803 46.4780713,19.1912803 C45.6837118,19.1710369 45.0562829,18.4746618 45.0754703,17.6365825 L45.1023327,16.4887782 L44.1736612,15.8895717 C43.4944263,15.452313 43.2814459,14.517065 43.6958943,13.8024708 C44.1103427,13.0878766 44.9968019,12.8611499 45.6741181,13.2984086 L47.3108056,14.353093 C47.7501977,14.6365015 48.0111467,15.1446123 47.9996343,15.6871371 L47.9516657,17.7114833 C47.9324783,18.5374165 47.2916182,19.1912803 46.5145274,19.1912803 L46.5145274,19.1912803 Z" id="Path"></path>
                    <path d="M46.0981602,36.9225284 C46.0866478,36.9225284 46.0732166,36.9225284 46.0617041,36.9225284 C45.2673446,36.902285 44.6399157,36.2059099 44.6591032,35.3678306 L44.7435278,31.8211761 C44.7627153,30.9952429 45.4035753,30.341379 46.1806662,30.341379 C46.1921786,30.341379 46.2056098,30.341379 46.2171223,30.341379 C47.0114818,30.3616225 47.6389106,31.0579976 47.6197232,31.8960769 L47.5352985,35.4427314 C47.5161111,36.2686646 46.875251,36.9225284 46.0981602,36.9225284 Z M46.3073032,28.0558922 C46.2957907,28.0558922 46.2823595,28.0558922 46.2708471,28.0558922 C45.4764876,28.0356488 44.8490587,27.3392737 44.8682461,26.5011944 L44.9526708,22.9545399 C44.9718582,22.1164606 45.6395807,21.4504507 46.4262652,21.4747428 C47.2206247,21.4949863 47.8480536,22.1913614 47.8288662,23.0294407 L47.7444415,26.5760952 C47.7252541,27.4020284 47.084394,28.0558922 46.3073032,28.0558922 Z" id="Shape"></path>
                </g>
                <path d="M11.8755663,36.7903113 C11.1629417,36.3918133 10.6427061,35.9372454 10.3128964,35.4266073 C9.98308668,34.9139668 9.81818182,34.185056 9.81818182,33.23587 L9.81818182,21.4491424 C9.81818182,20.6921966 9.96738146,20.051396 10.2677439,19.5287429 C10.5681063,19.0060898 11.051042,18.5595319 11.718514,18.193074 L21.2967381,12.8503983 C22.166415,12.3617878 23.0694654,12.1174825 24.0058895,12.1174825 C24.9423135,12.1174825 25.8414376,12.3617878 26.7032619,12.8503983 L36.281486,18.193074 C36.948958,18.5595319 37.4318937,19.0060898 37.7322561,19.5287429 C38.0326185,20.0533985 38.1818182,20.6921966 38.1818182,21.4491424 L38.1818182,33.23587 C38.1818182,34.1830535 38.0188765,34.9139668 37.6929931,35.4266073 C37.3671096,35.9392479 36.8488372,36.3938158 36.1362126,36.7903113 L25.8061009,42.5354899 C24.6066143,43.1843006 23.4051646,43.1843006 22.1978254,42.5354899 L11.8794926,36.7903113 L11.8755663,36.7903113 Z M13.7857143,34.1309884 L22.4078828,38.9930636 L22.4078828,28.4218549 L12.8649955,23.0791792 L12.8649955,32.6651569 C12.8649955,33.0015772 12.9337058,33.279925 13.0730897,33.5022028 C13.2124736,33.7244805 13.4500151,33.9347432 13.7876774,34.1329909 L13.7857143,34.1309884 Z M24.0039263,25.5642843 L33.3897614,20.3237362 L25.30746,15.7840639 C24.4456358,15.3014609 23.5759589,15.3014609 22.7003926,15.7840639 L14.6063123,20.3237362 L24.0039263,25.5642843 Z M34.2103594,34.1309884 C34.5558744,33.9327407 34.795379,33.722478 34.9308366,33.5002003 C35.0662942,33.2779225 35.1330414,32.9995747 35.1330414,32.6631544 L35.1330414,23.0771767 L25.5999698,28.4198524 L25.5999698,38.9910611 L34.2103594,34.1289859 L34.2103594,34.1309884 Z" id="Shape"></path>
            </g>
        </g>
    </g>
</svg>