<?xml version="1.0" encoding="UTF-8"?>
<svg width="34px" height="32px" viewBox="0 0 34 32" version="1.1" xmlns="http://www.w3.org/2000/svg" xmlns:xlink="http://www.w3.org/1999/xlink">
    <title>lockInPosition</title>
    <g id="E-HEALTH" stroke="none" stroke-width="1" fill="none" fill-rule="evenodd" fill-opacity="0.96">
        <g id="Lock" transform="translate(-5, -6)" fill="#FFFFFF" fill-rule="nonzero">
            <g id="lockInPosition" transform="translate(5, 6)">
                <path d="M20.0589175,17.006271 C19.3453269,17.006271 18.7849459,16.8006037 18.3927625,16.3950977 C18.0047425,15.993755 17.8074018,15.4050636 17.8074018,14.647342 L17.8074018,8.94611121 C17.8074018,8.19338555 18.0047425,7.60802477 18.3927625,7.20668211 C18.622577,6.96937368 18.9115104,6.79951081 19.2553995,6.70042414 L19.2553995,5.00679139 C19.2553995,3.90434805 19.475222,2.97010226 19.9082058,2.22820119 C20.3436876,1.48296948 20.9207217,0.91842523 21.6226551,0.549556348 C22.3162618,0.184850772 23.0623262,0 23.839199,0 C24.6160718,0 25.3704628,0.184850772 26.0640696,0.549556348 C26.7660029,0.919257891 27.3430371,1.48380214 27.7785188,2.22820119 C28.2123353,2.9692696 28.4313252,3.90434805 28.4313252,5.00679139 L28.4313252,6.70042414 C28.7752142,6.79951081 29.0641476,6.96937368 29.2939621,7.20668211 C29.6819822,7.60802477 29.8793229,8.19338555 29.8793229,8.94611121 L29.8793229,14.647342 C29.8793229,15.4050636 29.6819822,15.9929224 29.2939621,16.3950977 C28.9017787,16.8006037 28.3413978,17.006271 27.6278072,17.006271 L20.0564195,17.006271 L20.0589175,17.006271 Z M20.1005505,8.62387135 C20.0031292,8.62387135 19.9781493,8.65051651 19.9698227,8.65967578 C19.9490062,8.68132497 19.927357,8.74377456 19.927357,8.85535115 L19.927357,14.7389347 C19.927357,14.8355234 19.9448429,14.9112956 19.9731534,14.942104 C19.9823126,14.952096 20.0064598,14.9787411 20.1005505,14.9787411 L27.5895048,14.9787411 C27.6344685,14.9787411 27.6935874,14.9729125 27.7177346,14.9462673 C27.746045,14.9146262 27.7626983,14.8371887 27.7626983,14.7389347 L27.7626983,8.85535115 C27.7626983,8.74127657 27.7410491,8.67716167 27.7210652,8.65551248 C27.6960854,8.62803466 27.6278072,8.62387135 27.5895048,8.62387135 L20.1005505,8.62387135 L20.1005505,8.62387135 Z M26.348007,6.59550883 L26.348007,4.83359788 C26.348007,4.20910203 26.2297691,3.68369285 25.996624,3.27069293 C25.7634789,2.85602769 25.4662189,2.55377169 25.0881907,2.34477375 C24.7101626,2.13577581 24.2905013,2.02919518 23.8408643,2.02919518 C23.3912273,2.02919518 22.9857213,2.13244516 22.6018646,2.34477375 C22.2246691,2.55377169 21.9290744,2.85602769 21.6984272,3.26986027 C21.4677801,3.68369285 21.3503749,4.20993469 21.3503749,4.83443054 L21.3503749,6.5963415 L26.348007,6.5963415 L26.348007,6.59550883 Z" id="Shape"></path>
                <path d="M33.3590137,29.9308371 L30.6145626,23.7058625 C30.4397038,23.3195077 30.2265426,23.0447295 29.9817402,22.8898545 C29.8351918,22.7974292 29.6936394,22.7524655 29.5487564,22.7524655 C29.4771475,22.7524655 29.4030407,22.7632901 29.3272685,22.7857719 C29.0949561,22.8540501 28.8759662,23.0688767 28.6744622,23.4285863 L26.9075553,26.4777914 L23.1705721,24.6018058 L23.1705721,25.0539408 C23.1705721,25.279592 23.0806447,25.434467 22.8849694,25.5527048 L21.9823647,26.0739507 L25.9783055,28.080664 L24.6177372,30.4287684 C24.39958,30.795972 24.3171465,31.1023913 24.3746001,31.3380344 C24.4295558,31.5661835 24.5661122,31.7285525 24.8042533,31.8467904 C25.0057573,31.9467097 25.2505596,31.9983347 25.5319991,31.9983347 C25.6277551,31.9983347 25.7293398,31.992506 25.8350877,31.9808488 L32.5987941,31.245609 C33.0276146,31.1948167 33.3090541,31.0615909 33.4356186,30.8492623 C33.5596851,30.6402644 33.5330399,30.3305144 33.3573484,29.9300044 L33.3590137,29.9308371 Z" id="Path"></path>
                <g id="Group" transform="translate(0, 20.2495)">
                    <polygon id="Path" points="17.6999885 1.60620333 17.6999885 0 16.7607467 0.535401108 15.8289989 0.00582862793 15.8289989 1.60620333 15.1229023 1.96091697 15.7465655 2.31563061 15.7465655 3.70867269 16.7565834 3.20158206 17.7666014 3.70867269 17.7666014 2.31313263 18.3960932 1.95508834"></polygon>
                    <path d="M7.53819201,7.82951263 L11.5324675,5.82446462 L10.6390221,5.30821472 C10.4333548,5.1866462 10.341762,5.03177123 10.341762,4.80778538 L10.341762,4.36147901 L6.61643614,6.23246858 L4.8561905,3.18243085 C4.6463599,2.82438656 4.42070873,2.60706201 4.18589829,2.53795113 C4.11012613,2.51546928 4.03601929,2.50464469 3.96441043,2.50464469 C3.81952739,2.50464469 3.677975,2.54960839 3.5322593,2.64203377 C3.28912225,2.79524342 3.08262229,3.06752361 2.91692272,3.4555437 L0.154985745,9.68135099 C-0.0207057543,10.0835263 -0.0473509106,10.3924436 0.0767155982,10.6014415 C0.202447429,10.8137701 0.483886892,10.9478286 0.910209392,10.9977882 L7.67724642,11.733028 C7.78549237,11.7446853 7.88957501,11.7505139 7.98699636,11.7505139 C8.27343179,11.7505139 8.51823416,11.6997216 8.71390953,11.6006349 C8.94788731,11.4815644 9.08277841,11.3191954 9.13773405,11.0902136 C9.19518767,10.8537379 9.11275421,10.5481512 8.89209901,10.1759517 L7.53819201,7.83034529 L7.53819201,7.82951263 Z" id="Path"></path>
                </g>
                <path d="M24.092328,16.1744425 L22.0190018,14.9787411 L20.1005505,14.9787411 C20.0064598,14.9787411 19.9823126,14.9529286 19.9731534,14.942104 C19.9448429,14.9112956 19.927357,14.8355234 19.927357,14.7389347 L19.927357,13.7722151 L17.8598594,12.5798444 C17.5101417,12.3766751 17.1387749,12.2734251 16.7565834,12.2734251 C16.374392,12.2734251 16.0038577,12.3766751 15.6632993,12.5790117 L9.42167149,16.1744425 C9.07694978,16.3726159 8.80550225,16.6415654 8.61315753,16.9754625 C8.42081281,17.308527 8.32339146,17.6807265 8.32339146,18.0812365 L8.32339146,25.2887513 C8.32339146,25.6842653 8.42081281,26.0539668 8.61315753,26.3861986 C8.80550225,26.7200958 9.07778245,26.9890453 9.42083883,27.186386 L15.6599687,30.795972 C16.0046904,31.0008066 16.3735593,31.1040566 16.7574161,31.1040566 C17.1412729,31.1040566 17.5109744,31.0008066 17.8598594,30.7976373 L24.092328,27.186386 C24.4370497,26.9890453 24.7093299,26.7192631 24.9016746,26.385366 C25.0940193,26.0523015 25.1914407,25.6826 25.1914407,25.2870859 L25.1914407,18.0795712 C25.1914407,17.6790612 25.0940193,17.3068616 24.9016746,16.9737972 C24.7093299,16.6399001 24.4370497,16.3709505 24.0931607,16.1736098 L24.092328,16.1744425 Z M15.7465655,28.5069865 L10.6390221,25.5552028 C10.4333548,25.4336343 10.341762,25.2787593 10.341762,25.0547735 L10.341762,19.4909318 L15.7465655,22.5626187 L15.7465655,28.5069865 Z M11.0836631,17.5558273 L16.4668173,14.4441727 C16.5700673,14.3850537 16.6658233,14.3559106 16.7590814,14.3559106 C16.8523394,14.3559106 16.9447648,14.3842211 17.0463495,14.4441727 L22.4344997,17.5533293 L16.7607467,20.7840545 L11.0836631,17.5549947 L11.0836631,17.5558273 Z M23.1714048,25.0547735 C23.1714048,25.2804247 23.0814774,25.4352996 22.885802,25.5535375 L17.7666014,28.5111499 L17.7666014,22.5626187 L23.1714048,19.4909318 L23.1714048,25.0547735 L23.1714048,25.0547735 Z" id="Shape"></path>
            </g>
        </g>
    </g>
</svg>