<?xml version="1.0" encoding="UTF-8"?>
<svg width="34px" height="29px" viewBox="0 0 34 29" version="1.1" xmlns="http://www.w3.org/2000/svg" xmlns:xlink="http://www.w3.org/1999/xlink">
    <title>RestoreSize</title>
    <g id="E-HEALTH" stroke="none" stroke-width="1" fill="none" fill-rule="evenodd" fill-opacity="0.96">
        <g id="Restore" transform="translate(-5, -8)" fill="#FFFFFF" fill-rule="nonzero">
            <g id="RestoreSize" transform="translate(5, 8)">
                <path d="M1.14112102,11.7597251 C0.510704753,11.7597251 -8.8817842e-16,11.2490204 -8.8817842e-16,10.6186041 L-8.8817842e-16,7.49838151 C-8.8817842e-16,5.29240729 1.20194219,3.26503493 3.13760009,2.20693963 L5.70946675,0.800329377 C6.26264978,0.498154353 6.95581805,0.70089159 7.25799307,1.25407462 C7.5601681,1.80725765 7.35743086,2.50042592 6.80424783,2.80260094 L4.23238117,4.2092112 C3.02947356,4.86665909 2.28224204,6.12749162 2.28224204,7.49838151 L2.28224204,10.6186041 C2.28224204,11.2490204 1.77153728,11.7597251 1.14112102,11.7597251 Z" id="Path"></path>
                <path d="M27.7441081,27.5394401 C27.3405645,27.5394401 26.9495712,27.3251178 26.7420069,26.9457096 C26.4398319,26.3925265 26.6425691,25.6993583 27.1957522,25.3971833 L29.7676188,23.990573 C30.9705264,23.3331251 31.717758,22.0722926 31.717758,20.7014027 L31.717758,17.5802147 C31.717758,16.9497984 32.2284627,16.4390936 32.858879,16.4390936 C33.4892952,16.4390936 34,16.9497984 34,17.5802147 L34,20.7014027 C34,22.9064115 32.7980578,24.9337839 30.8623999,25.9928446 L28.2905333,27.3994548 C28.1167585,27.4940655 27.9294679,27.5394401 27.7441081,27.5394401 L27.7441081,27.5394401 Z" id="Path"></path>
                <g id="Group" transform="translate(10.245, 10.9594)">
                    <path d="M2.15963428,7.04463627 L2.15963428,1.86904424 L2.12198308,1.86904424 L1.152706,2.54193878 C0.975069567,2.66551195 0.856323471,2.70895565 0.668067466,2.70895565 C0.285762962,2.70895565 0,2.42319269 0,2.02544154 C0,1.73967857 0.112953603,1.51956386 0.392924073,1.32551536 L1.86325175,0.323414163 C2.27838037,0.0434436936 2.61144869,0 2.99954569,0 C3.71009143,0 4.12522006,0.425748197 4.12522006,1.10443523 L4.12522006,7.04463627 C4.12522006,7.63740133 3.73229599,8.01970583 3.14532341,8.01970583 C2.55835084,8.01970583 2.15963428,7.63740133 2.15963428,7.04463627 Z" id="Path"></path>
                    <path d="M5.29723437,3.17235505 C5.29723437,2.61724118 5.73842921,2.17604634 6.29354307,2.17604634 C6.84865694,2.17604634 7.29564427,2.61724118 7.29564427,3.17235505 C7.29564427,3.72746891 6.84865694,4.17445624 6.29354307,4.17445624 C5.73842921,4.17445624 5.29723437,3.72746891 5.29723437,3.17235505 L5.29723437,3.17235505 Z M5.29723437,6.96354137 C5.29723437,6.40842751 5.73842921,5.96144017 6.29354307,5.96144017 C6.84865694,5.96144017 7.29564427,6.40842751 7.29564427,6.96354137 C7.29564427,7.51865523 6.84865694,7.96564257 6.29354307,7.96564257 C5.73842921,7.96564257 5.29723437,7.51865523 5.29723437,6.96354137 L5.29723437,6.96354137 Z" id="Shape"></path>
                    <path d="M10.2913283,7.0591175 L10.2913283,1.9733091 L10.2546425,1.9733091 L9.3017775,2.63461866 C9.12703731,2.756261 9.01118746,2.79873928 8.8258277,2.79873928 C8.45028111,2.79873928 8.16934522,2.5178034 8.16934522,2.12681015 C8.16934522,1.84587427 8.28036799,1.62962122 8.55551139,1.43846896 L10.0007383,0.453745244 C10.4081436,0.178601851 10.7363848,0.136123573 11.1177239,0.136123573 C11.8166846,0.136123573 12.22409,0.554148447 12.22409,1.2212505 L12.22409,7.0591175 C12.22409,7.64126299 11.8379238,8.01680959 11.2606054,8.01680959 C10.683287,8.01680959 10.2922937,7.64126299 10.2922937,7.0591175 L10.2913283,7.0591175 Z" id="Path"></path>
                </g>
                <path d="M29.1709921,7.07359873 C28.8900562,6.58606394 28.4923051,6.19313987 27.9893236,5.90448066 L18.5282526,0.447952751 C18.0165824,0.150604804 17.4749844,-1.77635684e-15 16.9160089,-1.77635684e-15 C16.3570333,-1.77635684e-15 15.8173661,0.15157022 15.3182464,0.447952751 L5.84462491,5.90544608 C5.34164348,6.19410529 4.94389233,6.58799478 4.66199103,7.07552956 C4.38105514,7.56209893 4.23913908,8.10659322 4.23913908,8.69260037 L4.23913908,19.6317224 C4.23913908,20.2100062 4.38202056,20.7496735 4.66199103,21.2362428 C4.94292691,21.7237776 5.34067806,22.1176671 5.84269408,22.4053609 L15.3134193,27.8850588 C15.8173661,28.1833721 16.3570333,28.3349424 16.9160089,28.3349424 C17.4749844,28.3349424 18.0165824,28.1843376 18.5272872,27.8869896 L27.9883582,22.4063263 C28.4923051,22.1176671 28.8900562,21.7237776 29.1709921,21.2362428 C29.451928,20.7496735 29.5938441,20.2100062 29.5938441,19.6317224 L29.5938441,8.69260037 C29.5938441,8.10659322 29.4509626,7.56306434 29.1709921,7.07552956 L29.1709921,7.07359873 Z M15.5074678,23.6961213 L15.5074678,24.732012 L7.566926,20.1433926 C7.21744562,19.9358283 7.05525584,19.6606849 7.05525584,19.2764495 L7.05525584,10.6186041 L8.02260208,11.0375944 C8.68391164,11.3774206 9.49486058,11.1534443 9.88875007,10.523028 L9.88875007,10.523028 C10.3309103,9.8153785 10.0770061,8.88085638 9.33653245,8.49565563 L8.0554262,7.89613266 L16.4139928,3.06519393 C16.5896984,2.96382532 16.7547845,2.91458913 16.9189051,2.91458913 C17.0830257,2.91458913 17.2442501,2.9628599 17.4170595,3.06519393 L25.782384,7.89323641 L24.5649952,8.60474757 C23.8196945,8.98319041 23.5571015,9.91771253 23.9963655,10.6292237 L23.9963655,10.6292237 C24.3844625,11.25964 25.1905844,11.4884434 25.8528593,11.1582713 L26.7767619,10.6195695 L26.7767619,19.277415 C26.7767619,19.6635811 26.6174683,19.9396899 26.2815038,20.1424272 L18.3245499,24.7397354 L18.3245499,23.6980521 C18.3245499,22.9179965 17.690272,22.2856494 16.909251,22.289511 L16.909251,22.289511 C16.1340224,22.2933727 15.5074678,22.9228236 15.5074678,23.6980521 L15.5074678,23.6961213 Z" id="Shape"></path>
            </g>
        </g>
    </g>
</svg>