<?xml version="1.0" encoding="UTF-8"?>
<svg width="30px" height="29px" viewBox="0 0 30 29" version="1.1" xmlns="http://www.w3.org/2000/svg" xmlns:xlink="http://www.w3.org/1999/xlink">
    <title>hideBones</title>
    <g id="E-HEALTH" stroke="none" stroke-width="1" fill="none" fill-rule="evenodd" fill-opacity="0.96">
        <g id="hide" transform="translate(-7, -7)" fill="#FFFFFF" fill-rule="nonzero">
            <g id="Shape" transform="translate(7, 7)">
                <path d="M10.002834,11.0639137 C9.63346829,11.0639137 9.28205128,10.9945114 8.95802969,10.8575824 C8.63306343,10.7197156 8.3439946,10.5265145 8.09932524,10.2836062 C7.8537112,10.0397601 7.65816464,9.75277203 7.51835358,9.43014488 C7.37854251,9.10845561 7.30769231,8.76050599 7.30769231,8.39379897 C7.30769231,8.02709196 7.37854251,7.67914233 7.51835358,7.35745306 C7.65910931,7.03482592 7.8537112,6.74783782 8.09932524,6.50399172 C8.3439946,6.26108349 8.63306343,6.06788236 8.95802969,5.93001552 C9.28205128,5.79308656 9.63346829,5.72368421 10.002834,5.72368421 C10.3721997,5.72368421 10.7226721,5.79308656 11.0448043,5.93001552 C11.3678812,6.06788236 11.6578947,6.26108349 11.9044534,6.50492959 C12.1510121,6.74877569 12.3465587,7.03482592 12.4844804,7.35745306 C12.6224022,7.67914233 12.6923077,8.02802983 12.6923077,8.39473684 C12.6923077,8.76144386 12.6224022,9.11033135 12.4844804,9.43202062 C12.3465587,9.75464777 12.1510121,10.040698 11.9044534,10.2845441 C11.6578947,10.5283902 11.3678812,10.7215913 11.0448043,10.8594582 C10.7226721,10.9963871 10.3721997,11.0657895 10.002834,11.0657895 L10.002834,11.0639137 Z M10.002834,7.2636661 C9.68920378,7.2636661 9.417139,7.37527258 9.19419703,7.59660981 C8.97219973,7.81700917 8.85883941,8.08711561 8.85883941,8.39942619 C8.85883941,8.71173677 8.97125506,8.98184321 9.19419703,9.20224257 C9.417139,9.42264193 9.68825911,9.53424841 10.002834,9.53424841 C10.3174089,9.53424841 10.588529,9.42264193 10.811471,9.2013047 C11.0334683,8.98090534 11.1468286,8.7107989 11.1468286,8.39848832 C11.1468286,8.08617774 11.034413,7.81700917 10.811471,7.59567194 C10.588529,7.37527258 10.3174089,7.26272823 10.002834,7.26272823 L10.002834,7.2636661 Z"></path>
                <path d="M9.75421643,29 C9.58867743,29 9.42313842,28.9913553 9.25953555,28.9731055 C7.21111137,28.7493045 5.5537852,27.1125795 5.31854556,25.0820416 C5.30983298,25.0052001 5.30305653,24.9283585 5.29821621,24.8524775 L5.27691879,24.5307035 L4.95455336,24.4951643 C3.8916187,24.3789414 2.90516113,23.8900371 2.1752406,23.1187401 C1.32043978,22.2148914 0.893523399,21.0334526 0.972904676,19.7915011 C1.11230594,17.6092011 2.873215,15.8303193 5.06781689,15.6535837 C5.19172913,15.6439785 5.3175775,15.6382154 5.44148973,15.6382154 C5.92358578,15.6382154 6.39890538,15.7140964 6.85292756,15.8639375 C7.05912527,15.9321343 7.27597168,15.966713 7.49862649,15.966713 C8.08624155,15.966713 8.66901629,15.7227411 9.09690073,15.2972311 L9.97299897,14.427961 L9.12303847,14.3703299 C8.43958504,14.324225 7.77839708,14.2156863 7.15786783,14.0485559 C6.2924183,13.8151497 5.47924424,13.5029809 4.74254727,13.1226153 C4.0029461,12.7403286 3.33014138,12.3119369 2.74446244,11.8508877 C2.15684738,11.3879173 1.64861359,10.9191839 1.23428205,10.4581346 C0.823822765,10.0009274 0.507265721,9.57445681 0.294291564,9.19024907 C0.0513074108,8.75225225 0,8.50731982 0,8.37764971 C0,8.2479796 0.0513074108,8.00400768 0.294291564,7.56601086 C0.507265721,7.18276365 0.823822765,6.75629306 1.23428205,6.29812533 C1.64958166,5.83611553 2.15878351,5.36738209 2.7483347,4.90537228 C3.33594976,4.444323 4.00972255,4.01593137 4.75029178,3.63268415 C5.48698876,3.25135798 6.30016282,2.94014971 7.16561235,2.70578299 C8.02525349,2.47429783 8.94781882,2.35711447 9.9071706,2.35711447 C10.8665224,2.35711447 11.8074809,2.47429783 12.6719624,2.70578299 C13.5422522,2.93918919 14.3573624,3.25039746 15.0940594,3.63172364 C15.4657961,3.8238275 15.8220438,4.02937864 16.1550579,4.24165342 L16.6816849,4.57783519 L16.7494495,3.96022125 C16.8694894,2.86811076 17.38934,1.86340753 18.2131628,1.13149179 C19.0340813,0.401497085 20.0979841,0 21.2093219,0 C21.3748609,0 21.541368,0.00864467409 21.7049709,0.0268945416 C23.7533951,0.250695548 25.4107212,1.88742051 25.6449928,3.91891892 C25.6537054,3.99576047 25.6604818,4.07164149 25.6653222,4.14752252 L25.6866196,4.4692965 L26.0099531,4.5038752 C26.0757814,4.51059883 26.1416098,4.51924351 26.2074382,4.52980922 C28.2084272,4.83237281 29.7950847,6.50271595 29.980953,8.50059618 C30.0971208,9.74831081 29.6779489,10.9921834 28.8318607,11.9123609 C27.9848043,12.8334989 26.7795642,13.3617846 25.5239848,13.3617846 C24.9847729,13.3617846 24.4571778,13.2676537 23.9566886,13.0813129 C23.6904709,12.9823794 23.4126364,12.9324324 23.1299616,12.9324324 C22.5181449,12.9324324 21.947955,13.1639176 21.525879,13.582704 L14.4638495,20.5896926 C13.8384799,21.2101881 13.6400267,22.1572602 13.9585199,23.0015567 C14.1463244,23.4981452 14.2411947,24.0216282 14.2411947,24.5566375 C14.2411947,25.8177994 13.6981106,27.0232512 12.7513437,27.8656267 C11.9304251,28.5956214 10.8665224,28.998079 9.75518449,28.998079 L9.75421643,29 Z M6.20432444,22.8536367 C6.42117086,22.8536367 6.63220889,22.942965 6.78225886,23.0985692 C6.97490367,23.2983572 7.04944463,23.5778683 6.97974399,23.8458532 C6.89165014,24.1868376 6.86744853,24.5422297 6.90907529,24.9005034 C7.06009333,26.2020072 8.12205993,27.2499338 9.43475519,27.3940117 C9.54511453,27.4055379 9.65644193,27.4122615 9.7658332,27.4122615 C10.484137,27.4122615 11.147261,27.1606055 11.6826006,26.6851484 C12.2915131,26.144376 12.6400163,25.3692369 12.6400163,24.5595191 C12.6400163,24.2156532 12.5790282,23.8794714 12.4589882,23.560579 C11.9207445,22.1342077 12.2644073,20.5282194 13.3321823,19.467806 L20.3942117,12.4608174 C21.1086432,11.7519542 22.1076857,11.3456545 23.1338339,11.3456545 C23.6081854,11.3456545 24.0738244,11.4292197 24.519134,11.594429 C24.8395633,11.7135334 25.1783858,11.7740461 25.5249528,11.7740461 C26.3313504,11.7740461 27.1058019,11.4349828 27.6498541,10.8433029 C28.2016508,10.2429783 28.4630281,9.46399709 28.3875191,8.64851616 C28.2684472,7.36814388 27.2510116,6.29716481 25.9673582,6.1031399 C25.8211805,6.08104796 25.6720986,6.06952173 25.5259209,6.06952173 C25.3245635,6.06952173 25.1232061,6.09065315 24.9266891,6.13195548 C24.8724774,6.14348172 24.8163297,6.14924483 24.76115,6.14924483 C24.5443036,6.14924483 24.3332656,6.05991653 24.1832156,5.9043124 C23.9905708,5.70452438 23.9160299,5.42501325 23.9857305,5.15702835 C24.0738244,4.81604399 24.098026,4.46065183 24.0563992,4.10237811 C23.9063492,2.8008744 22.8434146,1.7529478 21.5307193,1.6088699 C21.42036,1.59734367 21.3090326,1.59062003 21.1996413,1.59062003 C20.4813375,1.59062003 19.8182135,1.8422761 19.2838419,2.31773317 C18.6749295,2.85850556 18.3264263,3.63364467 18.3264263,4.44336248 C18.3264263,4.73151828 18.3690211,5.01487149 18.4532427,5.28573794 C18.5461769,5.58445946 18.6042608,5.90047032 18.6255582,6.2222443 L18.6342707,6.34903286 L18.7175243,6.44604531 C19.0611871,6.8475424 19.330309,7.22406598 19.5181135,7.56505034 C19.7591615,8.00304716 19.8095009,8.24894012 19.8095009,8.37861023 C19.8095009,8.50828034 19.7591615,8.75417329 19.5181135,9.19217011 C19.3070755,9.57541733 18.9943907,10.0018879 18.5887717,10.4590951 C18.1802486,10.9201444 17.675887,11.3879173 17.0902081,11.8508877 C16.5064653,12.3119369 15.8375328,12.739368 15.0998678,13.1226153 C14.3728515,13.5000994 13.5654858,13.8093866 12.7010043,14.0427928 L12.6012937,14.0696873 L10.2314722,16.4210387 C9.50639196,17.1404677 8.50734954,17.553491 7.49088197,17.553491 C7.09881591,17.553491 6.71449436,17.4920178 6.3495341,17.3719528 C6.05814673,17.2759009 5.75320646,17.2269144 5.44148973,17.2269144 C5.36307652,17.2269144 5.28175912,17.229796 5.20044171,17.2365196 C3.79190807,17.3498609 2.66314504,18.4919184 2.57311505,19.8913951 C2.52180764,20.6905472 2.79576985,21.450318 3.34563041,22.0304716 C3.89549096,22.6115859 4.63993245,22.9314388 5.4424578,22.9314388 C5.64284712,22.9314388 5.8442045,22.9103074 6.04168963,22.869005 C6.0968693,22.8574788 6.15204897,22.8517157 6.20722864,22.8517157 L6.20432444,22.8536367 Z M9.90620253,4.12447006 C9.20048362,4.12447006 8.51315793,4.20803524 7.86165062,4.37132353 C7.21691976,4.5336513 6.60316696,4.75072867 6.03781738,5.01679253 C5.47730811,5.27997483 4.96132981,5.57101219 4.50343537,5.8793389 C4.04747706,6.18766561 3.64669842,6.49791335 3.31174815,6.80239799 C2.9738937,7.10976418 2.70864406,7.39119634 2.52277571,7.63901033 C2.29044026,7.94733704 2.18782544,8.17594065 2.18782544,8.37861023 C2.18782544,8.59760864 2.2894722,8.83677795 2.51793538,9.15470986 C2.70573987,9.41693164 2.9738937,9.70412692 3.31465235,10.0114931 C3.64863455,10.3121357 4.04941319,10.6185413 4.50633957,10.923026 C4.96423401,11.2284711 5.48118037,11.5137454 6.0426577,11.770204 C6.60703922,12.0285837 7.22079202,12.2389375 7.86552288,12.3955021 C8.51606212,12.5530273 9.20241975,12.6337109 9.9071706,12.6337109 C10.6119214,12.6337109 11.2915026,12.5539878 11.9401057,12.3955021 C12.5829005,12.2389375 13.1947171,12.0285837 13.7600667,11.770204 C14.3215441,11.5137454 14.8394585,11.2284711 15.298321,10.9239865 C15.7571835,10.6195019 16.1579621,10.3121357 16.4909763,10.0114931 C16.8288307,9.70508744 17.0960165,9.41789216 17.284789,9.15759141 C17.5161564,8.83869899 17.6197393,8.59856916 17.6197393,8.37957075 C17.6197393,8.17305909 17.5180925,7.95117912 17.2799487,7.63901033 C17.0911762,7.39215686 16.8268946,7.11168521 16.4929124,6.80527954 C16.1608663,6.49983439 15.7591196,6.18862613 15.3002571,5.88029942 C14.8413946,5.57197271 14.3244482,5.28189587 13.7629709,5.01775305 C13.1976213,4.75168919 12.5848366,4.53461182 11.9430099,4.37228405 C11.2934388,4.20803524 10.6080492,4.12543058 9.9071706,4.12543058 L9.90620253,4.12447006 Z"></path>
            </g>
        </g>
    </g>
</svg>