<?xml version="1.0" encoding="UTF-8"?>
<svg width="31px" height="33px" viewBox="0 0 31 33" version="1.1" xmlns="http://www.w3.org/2000/svg" xmlns:xlink="http://www.w3.org/1999/xlink">
    <title>lock2dù</title>
    <g id="E-HEALTH" stroke="none" stroke-width="1" fill="none" fill-rule="evenodd" fill-opacity="0.96">
        <g id="lock2D" transform="translate(-6, -6)" fill="#FFFFFF" fill-rule="nonzero">
            <g id="lock2dù" transform="translate(6.705, 6.1761)">
                <path d="M29.3180057,10.1541376 C28.9735641,9.79764058 28.508568,9.57633686 27.9247395,9.49022647 L27.9247395,6.61500043 C27.9247395,5.12959614 27.6379919,3.89649531 27.0653578,2.91655903 C26.4918626,1.93662275 25.7470077,1.20554551 24.8307931,0.723327306 C23.9137174,0.241109102 22.9380866,0 21.9030397,0 C20.8679928,0 19.9035564,0.241109102 18.9864807,0.723327306 C18.069405,1.20554551 17.3245501,1.93662275 16.751916,2.91655903 C16.1784207,3.89649531 15.8925342,5.12959614 15.8925342,6.61500043 L15.8925342,9.49022647 C15.3087058,9.57633686 14.8445707,9.79677947 14.4992681,10.1541376 C14.0446052,10.6243004 13.8172737,11.3261001 13.8172737,12.2586756 L13.8172737,20.4262464 C13.8172737,21.3665719 14.0446052,22.0718161 14.4992681,22.5419788 C14.9539309,23.0121416 15.6152588,23.2472229 16.4849737,23.2472229 L27.3323,23.2472229 C28.202015,23.2472229 28.8633428,23.0121416 29.3180057,22.5419788 C29.7726686,22.0718161 30,21.3665719 30,20.4262464 L30,12.2586756 C30,11.3261001 29.7726686,10.6251615 29.3180057,10.1541376 L29.3180057,10.1541376 Z M18.3458193,3.85344011 C18.7255662,3.17402911 19.229312,2.65995006 19.8570567,2.31206407 C20.4856626,1.96417808 21.1667958,1.79023508 21.9021786,1.79023508 C22.6375614,1.79023508 23.33075,1.96417808 23.9593559,2.31206407 C24.5879618,2.65995006 25.0934298,3.173168 25.476621,3.85344011 C25.8598123,4.53285112 26.0518385,5.37070524 26.0518385,6.3670025 L26.0518385,9.44889348 L17.7774907,9.44889348 L17.7774907,6.3670025 C17.7774907,5.37156635 17.9669336,4.53371222 18.3466804,3.85344011 L18.3458193,3.85344011 Z M28.0788771,20.5562731 C28.0788771,20.8481874 28.0099888,21.0720744 27.8713511,21.226212 C27.7327133,21.3803496 27.5337983,21.4569879 27.2728838,21.4569879 L16.5443899,21.4569879 C16.2912254,21.4569879 16.0940325,21.3803496 15.9519504,21.226212 C15.8098683,21.0720744 15.7383966,20.8490485 15.7383966,20.5562731 L15.7383966,12.1277878 C15.7383966,11.8358736 15.8098683,11.6137088 15.9519504,11.4638767 C16.0940325,11.3140446 16.2920865,11.2382675 16.5443899,11.2382675 L27.2728838,11.2382675 C27.5337983,11.2382675 27.7335744,11.3131835 27.8713511,11.4638767 C28.0099888,11.6137088 28.0788771,11.8350125 28.0788771,12.1277878 L28.0788771,20.5562731 Z" id="Shape"></path>
                <path d="M21.0979075,21.4569879 L21.0979075,29.0329803 C21.0979075,29.4816154 20.9842418,29.8200293 20.7612159,30.0378886 C20.5364678,30.2574701 20.2066649,30.3685525 19.7821407,30.3685525 L3.20675105,30.3685525 C2.77533798,30.3685525 2.44467407,30.2574701 2.22337036,30.0387497 C2.00206665,29.8208904 1.89012314,29.4824765 1.89012314,29.0329803 L1.89012314,17.4709377 C1.89012314,17.0214415 2.00206665,16.6813054 2.22423146,16.4591406 C2.44553518,16.2378369 2.77619909,16.1250323 3.20675105,16.1250323 L15.7383966,16.1250323 L15.7383966,14.234048 L3.18780677,14.234048 C2.14070438,14.234048 1.33901662,14.5009903 0.805132179,15.0279859 C0.27124774,15.5549815 1.77635684e-15,16.3480582 1.77635684e-15,17.3831051 L1.77635684e-15,29.1182296 C1.77635684e-15,30.1472488 0.27124774,30.9368811 0.805132179,31.4638767 C1.33901662,31.9908723 2.14070438,32.2578145 3.18780677,32.2578145 L19.801085,32.2578145 C20.8550762,32.2578145 21.6584862,31.9908723 22.1889262,31.4638767 C22.7193662,30.9368811 22.9888918,30.1472488 22.9888918,29.1182296 L22.9888918,21.4552657 L21.0979075,21.4552657 L21.0979075,21.4569879 Z" id="Path"></path>
            </g>
        </g>
    </g>
</svg>