<?xml version="1.0" encoding="UTF-8"?>
<svg width="73px" height="73px" viewBox="0 0 73 73" version="1.1" xmlns="http://www.w3.org/2000/svg" xmlns:xlink="http://www.w3.org/1999/xlink">
    <title>fieldofview</title>
    <g id="fieldofview" stroke="none" stroke-width="1" fill="none" fill-rule="evenodd" fill-opacity="0.96">
        <g transform="translate(5, 6)" fill="#FFFFFF" fill-rule="nonzero">
            <g id="􁿾-copy" transform="translate(0, -0)">
                <path d="M1.52371254,19.0033801 C0.472261782,17.9552982 -0.0350170934,16.8106824 0.00187591572,15.5695328 C0.0387689248,14.3283831 0.555271052,13.2021547 1.5513823,12.1908476 C3.96787439,9.69016093 6.79018959,7.52964118 10.0183279,5.70928837 C13.2464662,3.88893555 16.714409,2.48229929 20.4221565,1.48937957 C24.1299039,0.496459858 27.902214,0 31.739087,0 C35.5759599,0 39.3528817,0.496459858 43.0698524,1.48937957 C46.7868231,2.48229929 50.2639892,3.88893555 53.5013507,5.70928837 C56.7387123,7.52964118 59.5564159,9.69016093 61.9544615,12.1908476 C62.9505727,13.2205421 63.4716864,14.3513674 63.5178027,15.5833233 C63.563919,16.8152793 63.0520285,17.9552982 61.9821312,19.0033801 L36.2769271,44.5710628 C35.5897976,45.2386508 32.4586621,44.5710628 31.1049716,44.5710628 C29.7512811,44.5710628 27.3057333,44.5921966 27.2842561,44.5710628 L1.52371254,19.0033801 Z M4.04166041,16.7693108 L29.4424972,42.0336013 C30.936664,43.5045935 32.4216077,43.5045935 33.897328,42.0336013 L59.2981648,16.7693108 C59.6855414,16.3831753 59.8792297,15.9878462 59.8792297,15.5833233 C59.8792297,15.1788005 59.6947646,14.792665 59.3258346,14.424917 C57.0938075,12.2000413 54.5020736,10.2601704 51.5506329,8.60530421 C48.5991922,6.95043801 45.4263934,5.66791671 42.0322365,4.75774031 C38.6380797,3.8475639 35.1885833,3.3924757 31.6837475,3.3924757 C28.1604651,3.3924757 24.6971339,3.84296705 21.2937538,4.74394975 C17.8903737,5.64493246 14.7129633,6.91826006 11.7615226,8.56393255 C8.81008184,10.209605 6.23679445,12.1632665 4.04166041,14.424917 C3.67273032,14.792665 3.48365365,15.1788005 3.47410866,15.5833233 C3.46520715,15.9878462 3.65428382,16.3831753 4.04166041,16.7693108 Z" id="Shape"></path>
            </g>
            <g id="􀐘" transform="translate(20.6694, 9.0744)">
                <path d="M1.60200405,19.1093384 C1.07264316,18.8128182 0.673302265,18.4704339 0.403981359,18.0821856 C0.134660453,17.6939373 0,17.1107022 0,16.3324803 L0,7.40719779 C0,6.81818297 0.114619451,6.32667592 0.343858353,5.93267665 C0.573097255,5.53867738 0.938939804,5.20445949 1.441386,4.93002298 L9.26224933,0.578318007 C9.95286633,0.192772669 10.6479788,0 11.3475867,0 C12.0471946,0 12.7392327,0.192772669 13.4237011,0.578318007 L21.2537873,4.93002298 C21.7500849,5.20445949 22.1128532,5.53867738 22.3420921,5.93267665 C22.571331,6.32667592 22.6859504,6.81818297 22.6859504,7.40719779 L22.6859504,16.3324803 C22.6859504,17.1107022 22.5527981,17.6939373 22.2864935,18.0821856 C22.0201889,18.4704339 21.6186438,18.8128182 21.0818582,19.1093384 L12.4648653,23.8923665 C11.7192588,24.3003406 10.9736523,24.3003406 10.2280458,23.8923665 L1.60200405,19.1093384 Z M2.8107288,17.4088903 L10.3114001,21.6080794 L10.3114001,12.7511184 L1.9869305,8.09248392 L1.9869305,16.1375223 C1.9869305,16.4258762 2.04731453,16.6680497 2.1680826,16.8640429 C2.28885066,17.0600361 2.50306607,17.2416519 2.8107288,17.4088903 Z M19.8823563,17.4088903 C20.1852626,17.2416519 20.3970997,17.0600361 20.5178678,16.8640429 C20.6386359,16.6680497 20.6990199,16.4258762 20.6990199,16.1375223 L20.6990199,8.09248392 L12.3724621,12.7511184 L12.3724621,21.6080794 L19.8823563,17.4088903 Z M11.3464556,10.9419768 L19.57887,6.36977948 L12.541607,2.43663043 C11.750988,1.98920461 10.9542204,1.98920461 10.1513042,2.43663043 L3.11612931,6.36977948 L11.3464556,10.9419768 Z" id="Shape"></path>
            </g>
            <g id="􀋭" transform="translate(18.1488, 42.8512)">
                <path d="M13.614666,18.1487603 C12.2768871,18.1487603 11.0131225,17.9773349 9.82337228,17.634484 C8.63362205,17.2916331 7.53243621,16.838822 6.51981476,16.2760507 C5.50719331,15.7132794 4.60042088,15.0928384 3.79949747,14.4147276 C2.99857406,13.7366169 2.31474759,13.0567586 1.74801804,12.3751527 C1.1812885,11.6935468 0.748269775,11.0621288 0.448961865,10.4808989 C0.149653955,9.89966886 0,9.43020127 0,9.07249607 C0,8.71599232 0.149653955,8.24715276 0.448961865,7.66597738 C0.748269775,7.08480201 1.1812885,6.45341137 1.74801804,5.77180548 C2.31474759,5.09019959 2.99994136,4.41031396 3.80359935,3.73214859 C4.60725734,3.05398322 5.51537126,2.43384256 6.52794112,1.87172658 C7.54051097,1.30961061 8.64167101,0.85712719 9.83142125,0.514276314 C11.0211715,0.171425438 12.2822531,0 13.614666,0 C14.9640024,0 16.2371574,0.171425438 17.4341311,0.514276314 C18.6311048,0.85712719 19.7355669,1.30961061 20.7475176,1.87172658 C21.7594683,2.43384256 22.6642801,3.05398322 23.461953,3.73214859 C24.2596259,4.41031396 24.9385249,5.09019959 25.4986502,5.77180548 C26.0587755,6.45341137 26.4862218,7.08480201 26.7809893,7.66597738 C27.0757568,8.24715276 27.2231405,8.71599232 27.2231405,9.07249607 C27.2231405,9.43020127 27.0757568,9.89966886 26.7809893,10.4808989 C26.4862218,11.0621288 26.0587755,11.6935468 25.4986502,12.3751527 C24.9385249,13.0567586 24.2596259,13.7366169 23.461953,14.4147276 C22.6642801,15.0928384 21.7608098,15.7132794 20.7515421,16.2760507 C19.7422744,16.838822 18.6391537,17.2916331 17.4421801,17.634484 C16.2452064,17.9773349 14.9693684,18.1487603 13.614666,18.1487603 Z M13.614666,16.1306477 C14.666294,16.1306477 15.6754327,15.9934363 16.6420822,15.7190136 C17.6087317,15.4445909 18.5146012,15.0813973 19.3596907,14.6294327 C20.2047802,14.1774681 20.9710827,13.6830976 21.6585983,13.1463214 C22.3461139,12.6095451 22.9362164,12.0767009 23.4289058,11.5477887 C23.9215952,11.0188765 24.3016249,10.5346092 24.568995,10.0949868 C24.836365,9.6553644 24.97005,9.31453415 24.97005,9.07249607 C24.97005,8.86661079 24.836365,8.55434234 24.568995,8.13569073 C24.3016249,7.71703912 23.9215952,7.24041742 23.4289058,6.70582563 C22.9362164,6.17123385 22.3461139,5.63172703 21.6585983,5.08730518 C20.9710827,4.54288333 20.2047802,4.03769983 19.3596907,3.57175467 C18.5146012,3.10580952 17.6087317,2.7303829 16.6420822,2.4454748 C15.6754327,2.16056671 14.666294,2.01811266 13.614666,2.01811266 C12.5576721,2.01811266 11.5445089,2.16056671 10.5751764,2.4454748 C9.6058439,2.7303829 8.69863291,3.10580952 7.85354339,3.57175467 C7.00845388,4.03769983 6.2438282,4.54288333 5.55966635,5.08730518 C4.87550451,5.63172703 4.28571159,6.17123385 3.7902876,6.70582563 C3.29486361,7.24041742 2.91480809,7.71703912 2.65012104,8.13569073 C2.38543399,8.55434234 2.25309047,8.86661079 2.25309047,9.07249607 C2.25309047,9.31453415 2.38543399,9.6553644 2.65012104,10.0949868 C2.91480809,10.5346092 3.29486361,11.0188765 3.7902876,11.5477887 C4.28571159,12.0767009 4.87550451,12.6095451 5.55966635,13.1463214 C6.2438282,13.6830976 7.00845388,14.1774681 7.85354339,14.6294327 C8.69863291,15.0813973 9.6058439,15.4445909 10.5751764,15.7190136 C11.5445089,15.9934363 12.5576721,16.1306477 13.614666,16.1306477 Z M13.3668503,12.060681 C12.8736864,12.060681 12.4135781,11.9681608 11.9865256,11.7831204 C11.559473,11.5980801 11.1846493,11.3426725 10.8620547,11.0168977 C10.53946,10.6911229 10.2872299,10.314898 10.1053642,9.88822312 C9.92349851,9.46154823 9.83256567,9.00879497 9.83256567,8.52996334 C9.83256567,8.0387752 9.92349851,7.57917808 10.1053642,7.15117196 C10.2872299,6.72316585 10.53946,6.34844289 10.8620547,6.02700309 C11.1846493,5.7055633 11.559473,5.45450779 11.9865256,5.27383658 C12.4135781,5.09316536 12.8736864,5.00282975 13.3668503,5.00282975 C13.8536855,5.00282975 14.3106464,5.09316536 14.737733,5.27383658 C15.1648196,5.45450779 15.5394391,5.7055633 15.8615914,6.02700309 C16.1837437,6.34844289 16.4357527,6.72316585 16.6176184,7.15117196 C16.7994841,7.57917808 16.8904169,8.0387752 16.8904169,8.52996334 C16.8904169,9.00879497 16.7994841,9.46154823 16.6176184,9.88822312 C16.4357527,10.314898 16.1837437,10.6911229 15.8615914,11.0168977 C15.5394391,11.3426725 15.1648196,11.5980801 14.737733,11.7831204 C14.3106464,11.9681608 13.8536855,12.060681 13.3668503,12.060681 Z" id="Shape"></path>
            </g>
        </g>
    </g>
</svg>