<?xml version="1.0" encoding="UTF-8"?>
<svg width="29px" height="32px" viewBox="0 0 29 32" version="1.1" xmlns="http://www.w3.org/2000/svg" xmlns:xlink="http://www.w3.org/1999/xlink">
    <title>connect2D</title>
    <g id="E-HEALTH" stroke="none" stroke-width="1" fill="none" fill-rule="evenodd" fill-opacity="0.96">
        <g id="Connect2D" transform="translate(-7, -6)" fill="#FFFFFF" fill-rule="nonzero">
            <g id="connect2D" transform="translate(7.9127, 6)">
                <path d="M23.0703769,23.8249015 C22.8209812,23.5747818 22.5259333,23.4153835 22.1869241,23.3484023 C21.8479149,23.2814211 21.4733986,23.2475065 21.0625296,23.2475065 L20.3532311,23.2475065 L20.3532311,22.7777902 C20.3532311,20.0493659 18.7384992,18.2374819 15.5090353,17.3429861 L8.77873114,15.4369892 C6.54854116,14.8104182 5.43344617,13.6793685 5.43344617,12.0421443 L5.43344617,11.5588622 L6.16979775,11.5588622 C6.5798213,11.5588622 6.95433767,11.5257956 7.29419224,11.4579665 C7.63320141,11.3909853 7.92740388,11.2324348 8.17764506,10.9814673 C8.42788624,10.7304997 8.57245124,10.4490091 8.63923859,10.1090159 C8.70602593,9.76902267 8.7398423,9.3934192 8.7398423,8.9813576 L8.7398423,5.37115541 C8.7398423,4.95994168 8.70602593,4.58603394 8.63923859,4.25028005 C8.57245124,3.91452616 8.41858673,3.6220133 8.17764506,3.37104574 C7.92740388,3.12092605 7.63320141,2.96152774 7.29419224,2.89454653 C6.95518308,2.82756533 6.58066671,2.79365079 6.16979775,2.79365079 L2.556518,2.79365079 C2.15494854,2.79365079 1.78465923,2.82756533 1.44565006,2.89454653 C1.1066409,2.96152774 0.812438427,3.12007819 0.562197246,3.37104574 C0.311956066,3.6220133 0.156400738,3.91452616 0.0938404426,4.25028005 C0.0312801475,4.58603394 0,4.9548545 0,5.3575896 L0,8.9813576 C0,9.39257133 0.0312801475,9.76902267 0.0938404426,10.1090159 C0.156400738,10.4490091 0.311956066,10.7398262 0.562197246,10.9814673 C0.811593017,11.2324348 1.1066409,11.3909853 1.44565006,11.4579665 C1.78465923,11.5249477 2.15917559,11.5588622 2.57004455,11.5588622 L3.27934304,11.5588622 L3.27934304,12.0421443 C3.27934304,14.7705686 4.89407498,16.586692 8.12353886,17.4905143 L14.853843,19.3965111 C17.084033,20.0315608 18.199128,21.1592191 18.199128,22.7786381 L18.199128,23.2483544 L17.4500953,23.2483544 C17.0485258,23.2483544 16.6782365,23.2822689 16.3392273,23.3492501 C16.0002182,23.4162313 15.7060157,23.5747818 15.4557745,23.8257493 C15.2055333,24.0767169 15.049978,24.3692297 14.9874177,24.7049836 C14.9248574,25.0407375 14.8935773,25.4095581 14.8935773,25.8122932 L14.8935773,29.4360612 C14.8935773,29.8387963 14.9248574,30.2118562 14.9874177,30.5569366 C15.049978,30.9011691 15.2055333,31.1945298 15.4557745,31.4361709 C15.7051703,31.6778119 16.0002182,31.8321231 16.3392273,31.8991043 C16.6782365,31.9660855 17.0485258,32 17.4500953,32 L21.0625296,32 C21.4725532,32 21.8470695,31.9660855 22.1869241,31.8991043 C22.5259333,31.8321231 22.8201357,31.6778119 23.0703769,31.4361709 C23.3113186,31.1945298 23.4626469,30.9011691 23.5252072,30.5569366 C23.5877675,30.212704 23.6190476,29.8387963 23.6190476,29.4360612 L23.6190476,25.8122932 C23.6190476,25.4095581 23.5877675,25.0381939 23.5252072,24.6982007 C23.4626469,24.3582075 23.3113186,24.0673904 23.0703769,23.8257493 L23.0703769,23.8249015 Z" id="Path"></path>
                <g id="Group" transform="translate(12.4444, 0)">
                    <path d="M11.1506138,7.36550409 C11.1506138,7.12511224 11.0733146,6.92549358 10.9204152,6.77259417 C10.7675158,6.61969477 10.5687466,6.54239563 10.3283548,6.54239563 L8.18011813,6.54239563 L8.18011813,4.40180396 C8.18011813,4.15631548 8.10281899,3.95414849 7.94991959,3.80124908 C7.79702018,3.64834968 7.59825096,3.57105053 7.35785912,3.57105053 C7.11746727,3.57105053 6.93313855,3.650898 6.78278747,3.80719517 C6.63413527,3.96179346 6.55938445,4.16226156 6.55938445,4.40095452 L6.55938445,6.54154618 L4.41879279,6.54154618 C4.1733043,6.54154618 3.97113731,6.61884533 3.8182379,6.77174473 C3.6653385,6.92464414 3.58803936,7.12341336 3.58803936,7.3638052 C3.58803936,7.60419704 3.66788682,7.78852577 3.82418399,7.93887685 C3.97878228,8.08752905 4.17925039,8.16227987 4.41794335,8.16227987 L6.55853501,8.16227987 L6.55853501,10.3105165 C6.55853501,10.5500589 6.63413527,10.7496776 6.78363691,10.9017275 C6.93398799,11.0554764 7.12681113,11.1327755 7.35785912,11.1327755 C7.5889071,11.1327755 7.79786962,11.0554764 7.94991959,10.902577 C8.10281899,10.7496776 8.18011813,10.5509083 8.18011813,10.3105165 L8.18011813,8.16227987 L10.3283548,8.16227987 C10.5678972,8.16227987 10.7666664,8.08667961 10.9195658,7.93717797 C11.0733146,7.78682689 11.1506138,7.59400375 11.1506138,7.36295576 L11.1506138,7.36550409 Z" id="Path"></path>
                    <path d="M14.5679155,2.46932538 C14.4557892,1.89085597 14.1873658,1.38628793 13.7694408,0.968362894 C13.3472686,0.552136738 12.8393028,0.282863898 12.2591345,0.167339904 C11.6993528,0.0560631149 11.0733146,0 10.3988584,0 L4.30921488,0 C3.64495191,0 3.02570932,0.0560631149 2.46847594,0.167339904 C1.89085597,0.282014457 1.38373961,0.552136738 0.959868483,0.969212336 C0.543642327,1.39138458 0.275218928,1.89680206 0.163092698,2.47272315 C0.0552136738,3.02740821 0,3.64495191 0,4.30836544 L0,10.3980089 C0,11.0775618 0.0535147915,11.7027505 0.158845492,12.2565861 C0.268423399,12.8325072 0.53854568,13.3387742 0.961567365,13.7617958 C1.38373961,14.178022 1.89000653,14.4472948 2.46847594,14.5628188 C3.02570932,14.6740956 3.65004856,14.7301587 4.32450482,14.7301587 L10.3980089,14.7301587 C11.0724652,14.7301587 11.6976539,14.6740956 12.258285,14.5628188 C12.8384533,14.4481443 13.3472686,14.178022 13.7702902,13.7609464 C14.1865164,13.3387742 14.4549398,12.8333567 14.567066,12.2574356 C14.6757945,11.7027505 14.7301587,11.0767124 14.7301587,10.3980089 L14.7301587,4.32450482 C14.7301587,3.650898 14.6749451,3.02655877 14.567066,2.46932538 L14.5679155,2.46932538 Z M2.96030236,13.0423192 C2.60438652,12.9709661 2.31387765,12.8265611 2.09896905,12.6167492 C1.88830764,12.4060878 1.74814986,12.1206756 1.68104401,11.7690069 C1.61054039,11.3952528 1.57401442,11.0079077 1.57401442,10.6180142 L1.57401442,4.13762777 C1.57401442,3.737541 1.60969095,3.34340031 1.68104401,2.96709789 C1.74814986,2.61203149 1.88830764,2.32237206 2.09896905,2.10746346 C2.30963045,1.89680206 2.59928987,1.75494539 2.95860347,1.68614065 C3.34000254,1.61308872 3.73669155,1.57571331 4.13677833,1.57571331 L10.6171648,1.57571331 C11.0062088,1.57571331 11.3944034,1.61308872 11.7715553,1.68614065 C12.1257722,1.75494539 12.4120339,1.89935038 12.6252436,2.11680731 C12.8401522,2.32746871 12.9828583,2.61203149 13.0499642,2.96370012 C13.1204678,3.33830366 13.1569937,3.72564882 13.1569937,4.11469286 L13.1569937,10.6188636 C13.1569937,11.0079077 13.1196183,11.3944034 13.0465664,11.7690069 C12.9777617,12.121525 12.835905,12.4069372 12.6235447,12.6192975 C12.4128833,12.8342061 12.1266216,12.9786111 11.7724047,13.0474158 C11.3952528,13.1204678 11.0070582,13.1578432 10.6180142,13.1578432 L4.11384342,13.1578432 C3.72479938,13.1578432 3.33660478,13.1196183 2.9611518,13.0440181 L2.96030236,13.0423192 Z" id="Shape"></path>
                </g>
            </g>
        </g>
    </g>
</svg>