<?xml version="1.0" encoding="UTF-8"?>
<svg width="33px" height="37px" viewBox="0 0 33 37" version="1.1" xmlns="http://www.w3.org/2000/svg" xmlns:xlink="http://www.w3.org/1999/xlink">
    <title>LOCKINTO3D</title>
    <g id="E-HEALTH" stroke="none" stroke-width="1" fill="none" fill-rule="evenodd">
        <g id="Custom-Symbol" transform="translate(-169, -266)" fill="#FFFFFF" fill-rule="nonzero">
            <g id="LOCKINTO3D" transform="translate(169.1, 266.1)">
                <path d="M13.8113393,23.4443263 C13.3774033,23.4443263 13.0318252,23.3157163 12.7863863,23.0614415 C12.5438927,22.8101121 12.4211732,22.4517713 12.4211732,21.9962366 L12.4211732,18.9174507 C12.4211732,18.4638796 12.5438927,18.1075022 12.7863863,17.8561728 C12.9022335,17.7354168 13.0416428,17.6431318 13.2026507,17.5793177 L13.2026507,16.7899861 C13.2026507,16.163626 13.3292972,15.6285691 13.5796449,15.2015054 C13.8309744,14.7705146 14.1667348,14.44359 14.5751452,14.2285855 C14.9747198,14.0184897 15.4057105,13.9114784 15.8533911,13.9114784 C16.3010717,13.9114784 16.7359895,14.0184897 17.1365459,14.2285855 C17.5449562,14.44359 17.8807167,14.7705146 18.1320461,15.2015054 C18.3823938,15.6285691 18.5090403,16.163626 18.5090403,16.7899861 L18.5090403,17.5793177 C18.6700483,17.6431318 18.8094576,17.7354168 18.9262865,17.8561728 C19.1687802,18.1075022 19.2914996,18.4638796 19.2914996,18.9174507 L19.2914996,21.9962366 C19.2914996,22.452753 19.1687802,22.8110938 18.9262865,23.0614415 C18.6798658,23.3157163 18.3352696,23.445308 17.9003518,23.445308 L13.812321,23.445308 L13.8113393,23.4443263 Z M17.7962857,21.9991819 L17.7962857,18.9184325 L13.9154054,18.9184325 C13.9154054,18.9184325 13.9154054,21.9991819 13.9154054,21.9991819 L17.7962857,21.9991819 Z M17.031498,17.4732881 L17.031498,16.6967193 C17.031498,16.3904115 16.9755379,16.135155 16.8645995,15.9388039 C16.7546429,15.7444163 16.6162153,15.6020617 16.4414628,15.5058496 C16.2608198,15.4057105 16.0683956,15.3576045 15.8524094,15.3576045 C15.6364231,15.3576045 15.4489078,15.4057105 15.2682647,15.5058496 C15.094494,15.6020617 14.9570482,15.7434345 14.8480733,15.9378221 C14.7381167,16.1341733 14.6821566,16.3904115 14.6821566,16.6977011 L14.6821566,17.4742698 L17.0305162,17.4742698 L17.031498,17.4732881 Z" id="Shape"></path>
                <path d="M8.80929395,26.5584554 C7.8373558,26.5584554 7.08631269,26.3031989 6.57678148,25.7995582 C6.06528675,25.2949358 5.80610325,24.5537102 5.80610325,23.5955166 L5.80610325,13.5452835 C5.80610325,12.5821811 6.06528675,11.8380103 6.57678148,11.3333879 C7.08631269,10.8297472 7.83833756,10.5744907 8.80929395,10.5744907 L23.0378794,10.5744907 C24.0157081,10.5744907 24.7696965,10.8317107 25.2762824,11.3392784 C25.7838501,11.8468461 26.0410701,12.5890534 26.0410701,13.5452835 L26.0410701,23.5955166 C26.0410701,24.5517467 25.7838501,25.2929723 25.2753007,25.7985765 C24.767733,26.3031989 24.0147263,26.5584554 23.0378794,26.5584554 L8.80929395,26.5584554 Z M8.8259838,12.7412256 C8.52851182,12.7412256 8.31645259,12.8079849 8.17802503,12.9464125 C8.04156099,13.0828765 7.97185634,13.3096621 7.97185634,13.6198969 L7.97185634,23.5228667 C7.97185634,23.734926 8.00719954,24.0235621 8.17606152,24.1894789 C8.31448908,24.3259429 8.52753007,24.3927023 8.8259838,24.3927023 L23.0211896,24.3927023 C23.3157163,24.3927023 23.5277755,24.3259429 23.6691483,24.1875153 C23.8056124,24.0549783 23.875317,23.831138 23.875317,23.5228667 L23.875317,13.6198969 C23.875317,13.3106439 23.8056124,13.0848401 23.6671848,12.948376 C23.5267937,12.8089667 23.3157163,12.7412256 23.0211896,12.7412256 L8.8259838,12.7412256 L8.8259838,12.7412256 Z" id="Shape" fill-opacity="0.96"></path>
                <path d="M16.0497423,36 C15.4174916,36 14.8048761,35.827211 14.230549,35.4865418 L1.82704737,28.3099076 C1.25272028,27.9800376 0.800130901,27.5333388 0.481060296,26.9796286 C0.161989692,26.4269001 0,25.812321 0,25.1525812 L0,10.830729 C0,10.1611716 0.161989692,9.54070196 0.481060296,8.98797349 C0.800130901,8.43524503 1.25370204,7.98756443 1.82704737,7.65769451 L14.230549,0.512476479 C14.8058578,0.171807249 15.4174916,0 16.0497423,0 C16.681993,0 17.2995173,0.172789004 17.8846437,0.512476479 L30.2724372,7.65769451 C30.8467643,7.98756443 31.2993537,8.43524503 31.6184243,8.98797349 C31.9374949,9.54168371 32.0994846,10.1611716 32.0994846,10.830729 L32.0994846,25.1525812 C32.0994846,25.8113393 31.9374949,26.4269001 31.6184243,26.9796286 C31.2993537,27.532357 30.8457825,27.9800376 30.2724372,28.3099076 L17.8846437,35.4865418 C17.2995173,35.827211 16.681993,36 16.0497423,36 Z M17.3387875,25.2910088 C17.3427146,25.3175162 17.3456598,25.3587499 17.3456598,25.4196188 L17.3456598,31.8393193 C17.3456598,32.0346887 17.4507077,32.2163135 17.6195697,32.3135073 C17.7020371,32.3616134 17.7972674,32.387139 17.8934795,32.387139 C17.9896916,32.387139 18.0839401,32.3616134 18.1673893,32.3135073 L28.5847991,26.2953448 C29.1983965,25.9252229 29.5066678,25.3852573 29.5066678,24.6891925 L29.5066678,13.3548229 C29.5066678,13.1643623 29.4055469,12.984701 29.2415937,12.8865254 C29.156181,12.8354741 29.0589872,12.8079849 28.9588481,12.8079849 C28.8695083,12.8079849 28.7811503,12.8295836 28.7035916,12.8717991 L24.7657695,14.9452671 L23.5729363,12.5782541 L27.9152418,10.2701464 C28.090976,10.1768797 28.2019144,9.99525485 28.2058414,9.79694019 C28.2097685,9.59764379 28.1047206,9.41209196 27.9319316,9.31293463 L16.9794649,2.99140964 C16.6692301,2.80978483 16.3658676,2.72142682 16.0526876,2.72142682 C15.7395075,2.72142682 15.4341815,2.80978483 15.1190379,2.99140964 L4.17540702,9.31686165 C4.00850855,9.41307371 3.90346069,9.59273501 3.90149718,9.78614088 C3.90051542,9.97954676 4.00163626,10.1611716 4.16755297,10.2603289 L8.08672175,12.6155608 L6.87032643,14.9678475 L3.42240039,12.8865254 C3.3379694,12.8354741 3.23979383,12.8079849 3.13965475,12.8079849 C3.0454062,12.8079849 2.95312117,12.8325288 2.87065369,12.8786714 C2.69884644,12.9758652 2.59183507,13.1584717 2.59183507,13.3558046 L2.59183507,24.6901743 C2.59183507,25.3862391 2.9079604,25.9271865 3.53039352,26.2963266 L13.9320952,32.306635 C14.0155445,32.3547411 14.109793,32.3802667 14.2060051,32.3802667 C14.3022171,32.3802667 14.3964657,32.3547411 14.4799149,32.306635 C14.6487769,32.2094412 14.7538248,32.0278164 14.7538248,31.832447 L14.7538248,25.4353268 C14.8274564,25.4500532 14.9138509,25.47067 14.9982819,25.4903052 C15.2839728,25.5580463 15.6374049,25.6414955 16.0310889,25.6414955 C16.2392211,25.6414955 16.4208459,25.5295754 16.517058,25.3636587 C16.6260329,25.3538411 16.7291172,25.3410783 16.8243475,25.330279 C16.9971365,25.3106439 17.156181,25.2919905 17.2739917,25.2919905 C17.3004991,25.2919905 17.3220977,25.2919905 17.3397693,25.2929723 L17.3387875,25.2910088 Z" id="Shape"></path>
            </g>
        </g>
    </g>
</svg>